<svg viewBox="0 0 327 327" fill="none" xmlns="http://www.w3.org/2000/svg">
  <circle cx="163.5" cy="163.5" r="163.5" fill="#FDEAF1" />
  <rect x="99" y="121" width="20" height="56" rx="10" fill="#F95192" />
  <rect
    x="135.732"
    y="106.199"
    width="9.38796"
    height="47.4786"
    rx="4.69398"
    transform="rotate(104.429 135.732 106.199)"
    fill="#F95192"
  />
  <path
    d="M176.132 221.331C180.436 220.756 184.13 224.526 183.31 228.79C182.822 231.326 180.817 233.309 178.267 233.721C142.291 239.527 122.179 234.215 98.6428 212.899C96.4666 210.928 95.9691 207.711 97.3675 205.129C99.4355 201.311 104.583 200.561 107.817 203.458C127.483 221.079 143.376 225.706 176.132 221.331Z"
    fill="#F95192"
  />
  <rect
    x="218.31"
    y="95"
    width="9.38796"
    height="47.4786"
    rx="4.69398"
    transform="rotate(77.2604 218.31 95)"
    fill="#F95192"
  />
  <rect x="189" y="121" width="20" height="56" rx="10" fill="#F95192" />
  <circle cx="65" cy="168" r="23" fill="#F95192" />
  <circle cx="243" cy="168" r="23" fill="#F95192" />
  <path
    d="M257.5 80L264.927 101.897L285 110L264.927 118.103L257.5 140L250.073 118.103L230 110L250.073 101.897L257.5 80Z"
    fill="#F95192"
  />
</svg>
