<svg width="40" height="41" viewBox="0 0 40 41" fill="none" xmlns="http://www.w3.org/2000/svg">
<path d="M17.5 35.275C15.3074 34.9044 13.2247 34.0508 11.4027 32.7762C9.5806 31.5015 8.06479 29.8376 6.96501 27.905M8.58301 10.783C6.26777 13.4908 4.99696 16.9372 5.00001 20.5C5.00001 21.425 5.09701 22.327 5.25701 23.207M22.5 35.275C24.6926 34.9044 26.7753 34.0508 28.5974 32.7762C30.4194 31.5015 31.9352 29.8376 33.035 27.905M12.417 7.57296C14.7135 6.21557 17.3323 5.49951 20 5.49951C22.6677 5.49951 25.2865 6.21557 27.583 7.57296M31.417 10.783C33.7322 13.4908 35.0031 16.9372 35 20.5C35 21.425 34.903 22.327 34.743 23.207" stroke="white" stroke-width="1.5" stroke-linecap="round" stroke-linejoin="round"/>
<path d="M20 15.5L25 20.5L20 25.501L15 20.501L20 15.501V15.5Z" stroke="white" stroke-width="1.49999" stroke-linecap="round" stroke-linejoin="round"/>
</svg>
